<svg width="30" height="32" viewBox="0 0 30 32" fill="none" xmlns="http://www.w3.org/2000/svg">
<path d="M29.9236 17.0461V5.61199C29.9239 4.8752 29.7706 4.14556 29.4726 3.46476C29.1745 2.78396 28.7375 2.16533 28.1865 1.6442C27.6355 1.12306 26.9813 0.709632 26.2613 0.427517C25.5412 0.145404 24.7694 0.000132948 23.99 0L5.93952 2.81055C4.36464 2.81029 2.85414 3.40138 1.74028 4.45382C0.626417 5.50625 0.000426117 6.93384 0 8.42256V25.4854C-3.17289e-09 26.2225 0.153593 26.9523 0.452007 27.6333C0.750423 28.3142 1.18782 28.933 1.73921 29.4542C2.2906 29.9753 2.94519 30.3887 3.66561 30.6707C4.38603 30.9528 5.15816 31.0979 5.93791 31.0978H23.9884C24.768 31.0981 25.54 30.953 26.2603 30.671C26.9806 30.389 27.6351 29.9756 28.1863 29.4545C28.7375 28.9333 29.1746 28.3145 29.4727 27.6336C29.7708 26.9527 29.9241 26.2228 29.9236 25.4858V18.8131C29.907 18.524 29.8957 18.2334 29.8957 17.9377C29.8957 17.642 29.9054 17.3423 29.9236 17.0461ZM22.9498 27.4174C20.7095 28.826 18.0618 29.5423 15.3723 29.4675C11.1117 29.4675 7.17804 28.0176 3.57153 25.1177L7.428 21.4328C9.81471 23.8526 12.5653 25.0626 15.6798 25.0626C16.8279 25.0728 17.9623 24.8275 18.9916 24.3466C20.2621 23.771 20.8893 22.9725 20.8893 21.9503C20.8893 20.4533 19.7338 19.5002 17.4227 19.0911L14.231 18.517C11.3789 18.0042 9.2684 17.3566 7.89935 16.5742C6.93989 16.0683 6.14526 15.3237 5.60176 14.4211C5.05826 13.5185 4.78662 12.4925 4.81632 11.4544C4.78424 10.2718 5.06441 9.10032 5.6315 8.04576C6.19859 6.99126 7.03472 6.08694 8.06432 5.41453C10.1055 4.01224 12.5825 3.29237 15.1046 3.36851C18.6397 3.36851 22.1033 4.51143 25.4956 6.79728L22.2899 10.5313C19.9743 8.68836 17.6193 7.76772 15.2251 7.7694C14.1287 7.75608 13.0462 8.00166 12.0756 8.48382C11.5798 8.6898 11.1572 9.02646 10.8585 9.45348C10.5598 9.88056 10.3975 10.3799 10.391 10.8919C10.391 12.2234 11.547 13.0938 13.8587 13.5029L19.5401 14.5262C24.1607 15.3427 26.4708 17.5426 26.4704 21.126C26.5045 22.3722 26.1984 23.6057 25.5819 24.7076C24.9652 25.8095 24.0588 26.7428 22.9498 27.4174Z" fill="#0FD186"/>
</svg>
